<?xml version="1.0" encoding="UTF-8"?>
<svg xmlns="http://www.w3.org/2000/svg">
    <symbol id="prev" viewBox="0 0 31 52" fill="none">
        <g>
            <path fill-rule="evenodd" clip-rule="evenodd" d="M28.7665 49.9117C30.5433 48.1349 30.5433 45.2648 28.7665 43.488L11.09 25.8115L28.7665 8.13492C30.5433 6.35815 30.5433 3.48799 28.7665 1.71122C26.9898 -0.0655419 24.1196 -0.0655419 22.3429 1.71122L1.4317 22.6224C-0.345066 24.3992 -0.345066 27.2693 1.4317 29.0461L22.3429 49.9572C24.0741 51.6884 26.9898 51.6884 28.7665 49.9117Z" fill="currentColor"/>
        </g>
    </symbol>
    <symbol id="next" viewBox="0 0 31 52" fill="none">
        <g>
            <path fill-rule="evenodd" clip-rule="evenodd" d="M1.43267 1.71699C-0.344094 3.49375 -0.344094 6.36391 1.43267 8.14068L19.1092 25.8172L1.43267 43.4938C-0.344094 45.2705 -0.344094 48.1407 1.43267 49.9174C3.20944 51.6942 6.0796 51.6942 7.85636 49.9174L28.7675 29.0063C30.5443 27.2295 30.5443 24.3594 28.7675 22.5826L7.85636 1.67143C6.12515 -0.0597795 3.20944 -0.0597784 1.43267 1.71699Z" fill="currentColor"/>
        </g>
    </symbol>
</svg>